<svg width="800" height="600" xmlns="http://www.w3.org/2000/svg">

 <g>
  <title>Layer 1</title>
  <path id="svg_18" d="m144.23633,371.09003l4.26674,-20.0004l17.067,-5.00011l-21.33374,25.00051l-106.66622,0l0,-149.99999l127.99997,0l0,124.99949" stroke="#000" fill="#ffffff"/>
  <path stroke="#FF950A" id="svg_13" d="m159.46734,287.24121l-5.87368,-3.71977c-1.48195,-0.93759 -3.43467,-0.48633 -4.36845,1.00717l-2.31515,3.71283l11.2366,7.11098l2.31698,-3.71111c0.93024,-1.49528 0.48627,-3.4646 -0.99629,-4.4001l0,0zm-32.55286,33.07743l11.23721,7.11091l18.3148,-29.3768l-11.24256,-7.11277l-18.30945,29.37865l0,0zm-1.71648,9.03468l-0.24819,6.67916l5.86467,-3.12554l5.44995,-2.89938l-10.8409,-6.86446l-0.22553,6.21023l0,0l0,0z" fill="#FF950A"/>
  <line id="svg_19" y2="245" x2="147" y1="246" x1="54" stroke="#82B1FF" fill=""/>
  <line id="svg_20" y2="263" x2="144" y1="263" x1="56" stroke="#82B1FF" fill="none"/>
  <line stroke="#82B1FF" id="svg_21" y2="284" x2="133" y1="284" x1="55" fill="none"/>
  <line id="svg_22" y2="302" x2="125" y1="303" x1="56" stroke="#82B1FF" fill="none"/>
 </g>
</svg>